<svg id="_x33_0" enable-background="new 0 0 48 48" height="32" viewBox="0 0 48 48" width="32" xmlns="http://www.w3.org/2000/svg"><g><g><g><path d="m46 13.84v.01c0 .84-.09 1.67-.26 2.48-.39 1.78-1.18 3.47-2.34 4.91l-5.4 6.76v-6.54c1.2-.69 2-1.98 2-3.46s-.8-2.77-2-3.46v-11.9c4.66 1.59 8 6.01 8 11.2z" fill="#fcd770"/></g><g><path d="m25.2 25.82c1.03 1.33 2.65 2.18 4.46 2.18l.34-.02v.02 1.67c0 .8-.49 1.53-1.23 1.84-.57.24-1.13.5-1.66.79-.97.52-1.89 1.13-2.74 1.8-1.4 1.11-2.63 2.4-3.65 3.84-1.69 2.37-2.82 5.12-3.27 8.06h-12.45l-1.34-1.34c-1.06-1.06-1.66-2.5-1.66-4.01 0-1.68.75-3.27 2.04-4.35l.57-.48c1.07-.9 1.92-2 2.5-3.24.58-1.23.89-2.59.89-3.99 0-1.98.62-3.85 1.7-5.4 1.09-1.55 2.64-2.77 4.5-3.44 3.04-1.11 5.46-3.5 6.6-6.54l1.04-2.77c.58.35 1.26.56 1.99.56h.17v3.76c0 .79-.32 1.56-.88 2.12l-.71.71c-.26.26-.41.62-.41 1 0 .78.63 1.41 1.41 1.41h.59v2 .34c0 1.31.45 2.52 1.2 3.48z" fill="#fcd770"/></g><g><path d="m29.58 10.22c-.05.07-.11.13-.17.19-.36.37-.86.59-1.41.59h-4-.17c-.73 0-1.41-.21-1.99-.56-1.1-.68-1.84-1.89-1.84-3.27 0-1.35.71-2.59 1.86-3.29 2.05-1.23 4.41-1.88 6.8-1.88h5.34v12l-.25-.37c-1.02-1.53-2.47-2.72-4.17-3.41z" fill="#fcd770"/></g><g><path d="m26 53v3h-2l.75-5.25c.05-.35.07-.71.07-1.06 0-.8-.12-1.6-.38-2.37-.29-.87-.44-1.79-.44-2.72 0-1.69.5-3.35 1.44-4.77l.56-.83-1.63-4.9c.85-.67 1.77-1.28 2.74-1.8l2.16 5.75c.44 1.17 1.56 1.95 2.81 1.95h3.76c1.29 0 2.44-.83 2.84-2.05l2.01-6.01c1.09.42 2.15.91 3.18 1.46l-1.87 5.6.56.83c.6.91 1.03 1.93 1.25 2.98.13.59.19 1.19.19 1.79 0 .93-.15 1.85-.44 2.72-.18.54-.27 1.11-.27 1.68s.09 1.14.27 1.68l.44 1.32h-1c-.55 0-1 .45-1 1v3h-4v-3c0-.55-.45-1-1-1h-2c-.55 0-1 .45-1 1v3h-4v-3c0-.55-.45-1-1-1h-2c-.55 0-1 .45-1 1z" fill="#e6e9ed"/></g><g><path d="m56 53v3h-6v-3c0-.55.45-1 1-1h4c.55 0 1 .45 1 1z" fill="#aab2bd"/></g><g><path d="m22 53v3h-14v-3c0-.55.45-1 1-1h8 4c.55 0 1 .45 1 1z" fill="#ccd1d9"/></g><g><path d="m46 53v3h-4v-3c0-.55.45-1 1-1h1 1c.55 0 1 .45 1 1z" fill="#aab2bd"/></g><g><path d="m38 53v3h-4v-3c0-.55.45-1 1-1h2c.55 0 1 .45 1 1z" fill="#aab2bd"/></g><g><path d="m30 53v3h-4v-3c0-.55.45-1 1-1h2c.55 0 1 .45 1 1z" fill="#aab2bd"/></g><g><path d="m24 56h2 4 4 4 4 4 4 6 1c.55 0 1 .45 1 1v4c0 .55-.45 1-1 1h-50c-.55 0-1-.45-1-1v-4c0-.55.45-1 1-1h1 14z" fill="#969faa"/></g><g><path d="m54 22c2.21 0 4-1.79 4-4s-1.79-4-4-4-4 1.79-4 4 1.79 4 4 4zm4 2h-1.88c-.58 0-1.12.24-1.5.62-.3.31-.52.7-.61 1.38h-.01c-4.42 0-8-3.58-8-8 0-.55.06-1.09.16-1.61.75-3.65 3.97-6.39 7.84-6.39 4.42 0 8 3.58 8 8 0 2.54-1.18 4.8-3.02 6.26-.29-.17-.62-.26-.98-.26z" fill="#69d6f4"/></g><g><path d="m34 14v-12h.16c1.35 0 2.64.22 3.84.64v11.9c-.59-.34-1.27-.54-2-.54s-1.41.2-2 .54z" fill="#ccd1d9"/></g><g><path d="m38 14.54c1.2.69 2 1.98 2 3.46s-.8 2.77-2 3.46c-.59.34-1.27.54-2 .54-2.21 0-4-1.79-4-4 0-1.48.8-2.77 2-3.46.59-.34 1.27-.54 2-.54s1.41.2 2 .54z" fill="#aab2bd"/></g><g><path d="m52.68 40.63 3.32-11.63-1.38-1.38c-.4-.4-.62-.94-.62-1.5 0-.04 0-.08.01-.12.09-.68.31-1.07.61-1.38.38-.38.92-.62 1.5-.62h1.88c.36 0 .69.09.98.26.61.34 1.02 1 1.02 1.74v5 9.22c0 4.3-3.48 7.78-7.78 7.78-2.06 0-4.04-.82-5.5-2.28l-2.91-2.91c-.22-1.05-.65-2.07-1.25-2.98l-.56-.83 1.87-5.6c.87.46 1.71.96 2.52 1.51 2.17 1.45 4.13 3.2 5.85 5.2z" fill="#f0d0b4"/></g><g><path d="m24.75 50.75-.75 5.25h-2v-3c0-.55-.45-1-1-1h-4l.27-4.36c.04-.55.1-1.1.18-1.64.45-2.94 1.58-5.69 3.27-8.06 1.02-1.44 2.25-2.73 3.65-3.84l1.63 4.9-.56.83c-.94 1.42-1.44 3.08-1.44 4.77 0 .93.15 1.85.44 2.72.26.77.38 1.57.38 2.37 0 .35-.02.71-.07 1.06z" fill="#f0d0b4"/></g><g><path d="m24 14.76v-3.76h4c.55 0 1.05-.22 1.41-.59.06-.06.12-.12.17-.19 1.7.69 3.15 1.88 4.17 3.41l.25.37v.54c-1.2.69-2 1.98-2 3.46 0 2.21 1.79 4 4 4 .73 0 1.41-.2 2-.54v6.54 1.56c0 .86.55 1.62 1.37 1.9.44.15.89.31 1.32.48l-2.01 6.01c-.4 1.22-1.55 2.05-2.84 2.05h-3.76c-1.25 0-2.37-.78-2.81-1.95l-2.16-5.75c.53-.29 1.09-.55 1.66-.79.74-.31 1.23-1.04 1.23-1.84v-1.67-.02l-.34.02c-1.81 0-3.43-.85-4.46-2.18.81-.26 1.51-.76 2.01-1.43.49-.67.79-1.49.79-2.39h-4v-2h-.59c-.78 0-1.41-.63-1.41-1.41 0-.38.15-.74.41-1l.71-.71c.56-.56.88-1.33.88-2.12z" fill="#f0d0b4"/></g><g><path d="m24 22h4c0 .9-.3 1.72-.79 2.39-.5.67-1.2 1.17-2.01 1.43-.75-.96-1.2-2.17-1.2-3.48z" fill="#ff826e"/></g></g><g><path d="m29 13.585c-.535.535-1.465.535-2 0l-.293-.293-1.414 1.414.293.294c.646.645 1.503 1 2.414 1s1.769-.355 2.414-1l.293-.293-1.414-1.414z"/><path d="m63 18c0-4.962-4.037-9-9-9-2.873 0-5.429 1.358-7.078 3.459-.693-6.433-6.152-11.459-12.767-11.459h-5.493c-2.576 0-5.106.701-7.315 2.026-1.448.868-2.347 2.455-2.347 4.143 0 1.437.643 2.716 1.643 3.601l-.784 2.092c-1.037 2.768-3.226 4.935-6.005 5.945-4.1 1.491-6.854 5.423-6.854 9.785 0 2.504-1.104 4.859-3.027 6.462l-.575.479c-1.524 1.27-2.398 3.136-2.398 5.12 0 1.78.693 3.454 1.952 4.713l1.341 1.341 1.414-1.414-1.341-1.341c-.881-.881-1.366-2.053-1.366-3.299 0-1.389.611-2.695 1.679-3.584l.574-.479c2.382-1.984 3.747-4.899 3.747-7.998 0-3.524 2.226-6.701 5.537-7.905 3.329-1.211 5.951-3.807 7.194-7.123l.676-1.803c.195.061.388.119.593.155v2.841c0 .534-.208 1.036-.586 1.415l-.708.708c-.448.449-.706 1.071-.706 1.706 0 1.19.865 2.182 2 2.378v1.379c0 3.449 2.637 6.292 6 6.623v.7c0 .405-.241.768-.615.923-6.997 2.915-11.638 9.426-12.11 16.992l-.214 3.419h-7.061c-1.103 0-2 .897-2 2v2c-1.103 0-2 .897-2 2v4c0 1.103.897 2 2 2h50c1.103 0 2-.897 2-2v-4c0-1.103-.897-2-2-2v-2c0-1.103-.897-2-2-2h-4c-1.103 0-2 .897-2 2v2h-2v-2c0-1.103-.897-2-2-2h-.279l-.213-.64c-.293-.877-.293-1.843 0-2.72.244-.734.398-1.491.46-2.258l1.046 1.046c1.659 1.659 3.863 2.572 6.208 2.572 4.841 0 8.778-3.938 8.778-8.778v-14.222c0-.643-.208-1.237-.554-1.726 1.632-1.672 2.554-3.901 2.554-6.274zm-9-7c3.859 0 7 3.14 7 7 0 1.96-.812 3.79-2.232 5.112-.246-.066-.501-.112-.768-.112h-1.879c-1.308 0-2.427.811-2.89 1.955-3.499-.384-6.231-3.355-6.231-6.955 0-3.86 3.141-7 7-7zm-1.785 27.607c-3.43-3.703-7.732-6.501-12.531-8.1-.41-.136-.684-.517-.684-.948v-1.208l5.186-6.482c.414-.517.779-1.067 1.106-1.639.926 3.612 4.034 6.357 7.836 6.725.142.512.401.986.787 1.372l.963.963zm-10.491 1.78c.835 1.254 1.276 2.712 1.276 4.217 0 .818-.131 1.626-.391 2.404-.428 1.284-.428 2.699.001 3.984l.015.046c-.923.176-1.625.987-1.625 1.962v2h-2v-2c0-1.103-.897-2-2-2h-2c-1.103 0-2 .897-2 2v2h-2v-2c0-1.103-.897-2-2-2h-2c-.523 0-.995.206-1.352.536l.092-.646c.185-1.297.063-2.639-.35-3.881-.259-.779-.39-1.587-.39-2.405 0-1.505.441-2.963 1.276-4.216l.827-1.24-1.561-4.684c.34-.246.69-.48 1.05-.703l1.741 4.644c.583 1.552 2.088 2.595 3.746 2.595h3.759c1.725 0 3.249-1.099 3.794-2.735l1.664-4.99c.456.197.91.397 1.353.617l-1.752 5.256zm-4.724 14.613h-2v-2h2zm-8 0h-2v-2h2zm7-42c-.342 0-.677.035-1 .101v-10.058c.687.053 1.354.173 2 .349v9.71c-.323-.067-.658-.102-1-.102zm0 2c1.654 0 3 1.346 3 3s-1.346 3-3 3-3-1.346-3-3 1.346-3 3-3zm9-1.155c0 2.453-.844 4.859-2.377 6.775l-3.623 4.529v-3.174c1.207-.914 2-2.348 2-3.974s-.793-3.061-2-3.974v-9.871c3.551 1.784 6 5.452 6 9.689zm-22.625-9.104c1.899-1.139 4.073-1.741 6.287-1.741h4.338v8.257c-.636-.588-1.34-1.092-2.108-1.502.063-.243.108-.493.108-.755 0-1.654-1.346-3-3-3h-1v2h1c.552 0 1 .449 1 1s-.448 1-1 1h-4.169c-1.561 0-2.831-1.27-2.831-2.831 0-.989.526-1.919 1.375-2.428zm3.205 19.807c-.258-.474-.435-.993-.514-1.548h1.765c-.225.643-.667 1.188-1.251 1.548zm3.574 7.888c1.121-.468 1.846-1.555 1.846-2.769v-.803c1.265-.258 2.429-.879 3.365-1.814l.343-.343-1.416-1.413-.342.342c-.88.88-2.05 1.364-3.293 1.364-1.035 0-1.983-.351-2.757-.924 1.296-.918 2.1-2.416 2.1-4.076v-1h-4v-2h-1.586c-.228 0-.414-.186-.414-.414 0-.109.044-.216.121-.293l.707-.707c.756-.756 1.172-1.761 1.172-2.829v-2.757h3c.659 0 1.263-.22 1.759-.581 1.252.626 2.325 1.543 3.117 2.709-1.134.917-1.876 2.303-1.876 3.872 0 2.757 2.243 5 5 5 .342 0 .677-.035 1-.101v6.66c0 1.293.824 2.437 2.051 2.846.129.043.253.097.38.141l-1.696 5.087c-.273.818-1.035 1.367-1.897 1.367h-3.759c-.829 0-1.582-.521-1.873-1.298l-1.84-4.906c.261-.123.52-.249.788-.36zm-10.883 15.271c.291-4.653 2.337-8.86 5.614-11.894l1.012 3.039-.284.427c-1.055 1.583-1.613 3.424-1.613 5.325 0 1.033.166 2.054.493 3.036.315.95.408 1.976.267 2.967l-.628 4.393h-.132v-2c0-1.103-.897-2-2-2h-2.935zm-9.271 5.293h12v2h-12zm48.001 8h-50.001v-4h48 2zm-6.001-8h4v2h-4zm-6 2h-2v-2h2zm14-14.778c0 3.737-3.041 6.778-6.778 6.778-1.811 0-3.513-.705-4.793-1.985l-2.737-2.737c-.265-1.059-.689-2.076-1.304-2.999l-.284-.426 1.329-3.988c2.644 1.56 5.029 3.545 7.044 5.896l.092.108-.531 1.858 1.924.55 4.161-14.566-1.795-1.795c-.212-.214-.328-.495-.328-.795 0-.618.503-1.121 1.121-1.121h1.879c.552 0 1 .449 1 1z"/><path d="m54 23c2.757 0 5-2.243 5-5s-2.243-5-5-5-5 2.243-5 5 2.243 5 5 5zm0-8c1.654 0 3 1.346 3 3s-1.346 3-3 3-3-1.346-3-3 1.346-3 3-3z"/><path d="m13.051 30.135c1.041-2.083 2.933-3.601 5.191-4.165l-.484-1.94c-2.826.707-5.194 2.606-6.496 5.21l-.156.312 1.789.896z"/><path d="m9.071 39.629 1.857.742.574-1.436c.778-1.946 2.446-3.452 4.462-4.028 2.373-.678 4.365-2.332 5.469-4.539l.461-.921-1.789-.895-.461.921c-.853 1.707-2.395 2.986-4.229 3.51-2.606.744-4.764 2.691-5.771 5.208z"/></g></g></svg>